<?xml version="1.0" encoding="UTF-8" standalone="no"?>
<svg
        width="256"
        height="256"
        viewBox="0 0 256 256"
        version="1.1"
        id="svg3"
        sodipodi:docname="icon.svg"
        inkscape:version="1.4.3 (0d15f75042, 2025-12-25)"
        xml:space="preserve"
        xmlns:inkscape="http://www.inkscape.org/namespaces/inkscape"
        xmlns:sodipodi="http://sodipodi.sourceforge.net/DTD/sodipodi-0.dtd"
        xmlns:xlink="http://www.w3.org/1999/xlink"
        xmlns="http://www.w3.org/2000/svg"
><sodipodi:namedview
     id="namedview3"
     pagecolor="#ffffff"
     bordercolor="#000000"
     borderopacity="0.25"
     inkscape:showpageshadow="2"
     inkscape:pageopacity="0.0"
     inkscape:pagecheckerboard="true"
     inkscape:deskcolor="#d1d1d1"
     inkscape:zoom="2.828125"
     inkscape:cx="142.49724"
     inkscape:cy="70.364641"
     inkscape:window-width="3072"
     inkscape:window-height="1659"
     inkscape:window-x="0"
     inkscape:window-y="0"
     inkscape:window-maximized="1"
     inkscape:current-layer="g9"
     showguides="false" /><!-- Outer ring --><!-- Left half --><!-- Gradient -->
    <defs
            id="defs2"><linearGradient
       id="linearGradient14"
       inkscape:collect="always"><stop
         style="stop-color:#e5f1ff;stop-opacity:1;"
         offset="0"
         id="stop15" /><stop
            style="stop-color:#ffe5e5;stop-opacity:1;"
            offset="1"
            id="stop16"/></linearGradient>
        <linearGradient
                id="linearGradient10"
                inkscape:collect="always"><stop
         style="stop-color:#000000;stop-opacity:0.40000001;"
         offset="0.60000002"
         id="stop10" />
            <stop
                    style="stop-color:#000000;stop-opacity:0.2;"
                    offset="0.63999999"
                    id="stop14"/>
            <stop
                    style="stop-color:#c8c8c8;stop-opacity:0;"
                    offset="0.87034261"
                    id="stop12"/>
            <stop
                    style="stop-color:#000000;stop-opacity:0.2;"
                    offset="0.97000003"
                    id="stop13"/>
            <stop
                    style="stop-color:#000000;stop-opacity:0.40000001;"
                    offset="1"
                    id="stop11"/></linearGradient>
        <linearGradient
                id="linearGradient3"
                inkscape:collect="always"><stop
         style="stop-color:#1fcd75;stop-opacity:1;"
         offset="0"
         id="stop3" />
            <stop
                    style="stop-color:#13aeeb;stop-opacity:1;"
                    offset="1"
                    id="stop4"/></linearGradient>
        <linearGradient
                id="grad"
                x1="127.98963"
                y1="8.0051832"
                x2="248.01036"
                y2="247.99481"
                gradientUnits="userSpaceOnUse"
                gradientTransform="matrix(1.0041662,0,0,1.0041667,-0.53327731,-0.53333337)"><stop
         offset="0"
         stop-color="#ff3b30"
         id="stop1"
         style="stop-color:#ff4025;stop-opacity:1;" />
            <stop
                    offset="1"
                    stop-color="#ff9f0a"
                    id="stop2"
                    style="stop-color:#ffca11;stop-opacity:1;"/></linearGradient>
        <linearGradient
                inkscape:collect="always"
                xlink:href="#linearGradient3"
                id="linearGradient4"
                x1="127.56907"
                y1="248.07095"
                x2="27.771822"
                y2="10.353917"
                gradientUnits="userSpaceOnUse"
                gradientTransform="matrix(1.0041662,0,0,1.0041667,-0.53327782,-0.53333337)"/>
        <radialGradient
                inkscape:collect="always"
                xlink:href="#linearGradient10"
                id="radialGradient11"
                cx="128"
                cy="128"
                fx="128"
                fy="128"
                r="120"
                gradientUnits="userSpaceOnUse"/>
        <linearGradient
                inkscape:collect="always"
                xlink:href="#linearGradient14"
                id="linearGradient16"
                x1="56"
                y1="128"
                x2="200"
                y2="128"
                gradientUnits="userSpaceOnUse"/></defs><!-- Right half --><!-- Inner circle --><!-- Music note (scaled + centered real path) -->
    <g
            id="g9"><g
       id="g6"
       transform="matrix(0.99585104,0,0,0.99585062,0.53106532,0.53112035)"
       style="display:inline;stroke:none;stroke-width:2.00833;stroke-dasharray:none;stroke-opacity:1"
       inkscape:label="background"><path
         d="m 128,7.5 a 120.49995,120.5 0 0 0 0,241 V 128 Z"
         fill="#2BAE92"
         id="path1"
         style="fill:url(#linearGradient4);stroke:none;stroke-width:2.00833;stroke-dasharray:none;stroke-opacity:1"
         inkscape:label="left circle" /><path
            d="m 128,7.5 a 120.49995,120.5 0 0 1 0,241 V 128 Z"
            fill="url(#grad)"
            id="path2"
            inkscape:label="right circle"
            style="fill:url(#grad);stroke:none;stroke-width:2.00833;stroke-dasharray:none;stroke-opacity:1"/><circle
            cx="128"
            cy="128"
            fill="#d9d9d9"
            id="circle9"
            style="opacity:1;fill:url(#radialGradient11);fill-opacity:1;stroke-width:1.66668"
            inkscape:label="shade"
            r="120"
            transform="matrix(1.0041662,0,0,1.0041667,-0.53327787,-0.53333335)"/><path
            id="path7"
            style="display:none;fill:none;stroke:#000000;stroke-width:1.00417;stroke-dasharray:none;stroke-opacity:1"
            inkscape:label="border"
            d="m 128,8 a 120,120 0 0 0 0,240 120,120 0 0 0 0,-240 z"/><circle
            cx="128"
            cy="128"
            fill="#d9d9d9"
            id="circle2"
            style="fill:url(#linearGradient16);fill-opacity:1;stroke:none;stroke-width:0.905443;stroke-dasharray:none;stroke-opacity:1"
            inkscape:label="white center"
            r="72"
            transform="matrix(1.0041662,0,0,1.0041667,-0.53327787,-0.53333335)"/></g>
        <g
                transform="matrix(0.09363897,0,0,0.09263278,21.995181,59.174498)"
                id="g3"
                style="fill:#000000;fill-opacity:1"><path
         id="path6"
         style="display:none;fill:#000000;fill-opacity:1;stroke:none;stroke-width:15.6689;stroke-dasharray:none;stroke-opacity:1"
         inkscape:label="music note"
         sodipodi:type="inkscape:offset"
         inkscape:radius="8.3105297"
         inkscape:original="M 1419.5566 311.35938 L 906.60156 419.06445 L 906.60156 556.40234 L 906.60156 1014.3848 C 884.62956 993.18277 848.84958 982.95189 811.51758 990.21289 C 756.24558 1000.9609 718.50312 1045.9567 727.20312 1090.7207 C 735.91212 1135.4847 787.7702 1163.0593 843.0332 1152.3203 C 893.2502 1142.5553 928.99484 1104.5154 928.58984 1064.0684 L 928.5957 1064.0684 L 928.5957 551.78516 L 1397.5586 453.31641 L 1397.5586 906.68164 C 1375.5866 885.47964 1339.8086 875.24877 1302.4766 882.50977 C 1247.2046 893.25777 1209.4602 938.25162 1218.1602 983.01562 C 1226.8692 1027.7796 1278.7292 1055.3562 1333.9922 1044.6172 C 1384.2092 1034.8522 1419.9519 996.81028 1419.5469 956.36328 L 1419.5566 956.36328 L 1419.5566 448.69727 L 1419.5566 311.35938 z "
         d="M 1417.8496,303.22656 904.89453,410.93164 a 8.3113608,8.3113608 0 0 0 -6.60351,8.13281 v 137.33789 441.08203 c -23.78321,-15.49914 -55.56085,-21.80893 -88.35938,-15.42968 -58.84221,11.44226 -100.64446,60.04551 -90.88672,110.25191 a 8.3113608,8.3113608 0 0 0 0,0 c 9.76786,50.2065 66.7406,79.6028 125.57422,68.1699 53.41804,-10.3874 92.66734,-51.0344 92.27734,-96.3847 a 8.3113608,8.3113608 0 0 0 0.01,-0.025 V 558.53125 L 1389.248,463.55273 v 426.22852 c -23.7826,-15.49906 -55.5589,-21.80893 -88.3574,-15.42969 -58.842,11.44221 -100.6464,60.04341 -90.8886,110.25 a 8.3113608,8.3113608 0 0 0 0,0.002 c 9.7678,50.20668 66.7423,79.60478 125.5761,68.17188 53.4137,-10.3866 92.6565,-51.0297 92.2735,-96.37501 a 8.3113608,8.3113608 0 0 0 0.016,-0.0371 V 448.69727 311.35937 a 8.3113608,8.3113608 0 0 0 -10.0176,-8.13281 z" />
            <path
                    d="m 1506.215,264.88093 c -9.6891,-8.36948 -22.4947,-12.03747 -35.1208,-10.02381 l -552.21511,88.13839 c -21.1872,3.38159 -36.79428,21.84427 -36.79428,43.52843 v 176.27858 279.1067 h -87.19307 c -96.1554,0.002 -174.38438,72.48986 -174.38438,161.58888 0,89.1007 78.22898,161.5888 174.38438,161.5888 96.15539,0 174.38438,-72.4881 174.38438,-161.5888 V 885.97842 600.45896 L 1434.3,526.2365 v 242.22405 h -87.1913 c -96.1554,0 -174.3844,72.48809 -174.3844,161.58884 0,89.10071 78.229,161.58881 174.3844,161.58881 96.1553,0 174.3826,-72.4898 174.3826,-161.58881 V 812.52975 474.66412 298.38554 c 0,-12.88775 -5.5837,-25.13157 -15.2763,-33.50461 z"
                    id="path1-5"
                    style="fill:#000000;stroke-width:1.76927"
                    inkscape:label="music note 2"/></g></g></svg>
