<?xml version="1.0" encoding="UTF-8" standalone="no"?>
<svg
        width="256"
        height="256"
        viewBox="0 0 256 256"
        version="1.1"
        id="svg3"
        sodipodi:docname="icon-symbolic.svg"
        inkscape:version="1.4.3 (0d15f75042, 2025-12-25)"
        xml:space="preserve"
        xmlns:inkscape="http://www.inkscape.org/namespaces/inkscape"
        xmlns:sodipodi="http://sodipodi.sourceforge.net/DTD/sodipodi-0.dtd"
        xmlns="http://www.w3.org/2000/svg"
><sodipodi:namedview
   id="namedview3"
   pagecolor="#ffffff"
   bordercolor="#000000"
   borderopacity="0.25"
   inkscape:showpageshadow="2"
   inkscape:pageopacity="0.0"
   inkscape:pagecheckerboard="true"
   inkscape:deskcolor="#d1d1d1"
   inkscape:zoom="2.3125"
   inkscape:cx="46.27027"
   inkscape:cy="67.027027"
   inkscape:window-width="3072"
   inkscape:window-height="1659"
   inkscape:window-x="0"
   inkscape:window-y="0"
   inkscape:window-maximized="1"
   inkscape:current-layer="g9"
   showguides="false"
   showgrid="true"><inkscape:grid
     id="grid1"
     units="px"
     originx="0"
     originy="0"
     spacingx="1"
     spacingy="1"
     empcolor="#0099e5"
     empopacity="0.30196078"
     color="#0099e5"
     opacity="0.14901961"
     empspacing="16"
     enabled="true"
     visible="true" /></sodipodi:namedview><!-- Outer ring --><!-- Left half --><!-- Gradient -->
    <defs
            id="defs2">
        
        
        <linearGradient
                id="grad"
                x1="127.98963"
                y1="8.0051832"
                x2="248.01036"
                y2="247.99481"
                gradientUnits="userSpaceOnUse"
                gradientTransform="matrix(1.0041662,0,0,1.0041667,-0.53327731,-0.53333337)"><stop
   offset="0"
   stop-color="#ff3b30"
   id="stop1"
   style="stop-color:#ff4025;stop-opacity:1;" />
            <stop
                    offset="1"
                    stop-color="#ff9f0a"
                    id="stop2"
                    style="stop-color:#ffca11;stop-opacity:1;"/></linearGradient>
        
        
        </defs><!-- Right half --><!-- Inner circle --><!-- Music note (scaled + centered real path) -->
    <g
            id="g9"
            transform="matrix(0.99803072,0,0,0.99803072,0.25206984,0.25206778)"><g
   id="g6"
   transform="matrix(0.93129495,0,0,0.93129456,8.7942448,8.7942963)"
   style="display:inline;stroke:none;stroke-width:2.00833;stroke-dasharray:none;stroke-opacity:1"
   inkscape:label="background"><path
     id="path2"
     style="display:inline;stroke:none;stroke-width:1.00835;stroke-dasharray:none;stroke-opacity:1;fill:#000000;fill-opacity:1"
     inkscape:label="border 192"
     d="M 128 7.5 A 120.49995 120.5 0 0 0 128 248.5 A 120.49995 120.5 0 0 0 128 7.5 z M 128 24.714286 A 103.28567 103.28571 0 0 1 231.28567 128 A 103.28567 103.28571 0 0 1 128 231.28571 A 103.28567 103.28571 0 0 1 24.714328 128 A 103.28567 103.28571 0 0 1 128 24.714286 z " /></g>
        <g
                transform="matrix(0.11960772,0,0,0.11832249,-5.8173337,40.942473)"
                id="g3"
                style="fill:#000000;fill-opacity:1">
            <path
                    d="m 1506.215,264.88093 c -9.6891,-8.36948 -22.4947,-12.03747 -35.1208,-10.02381 l -552.21511,88.13839 c -21.1872,3.38159 -36.79428,21.84427 -36.79428,43.52843 v 176.27858 279.1067 h -87.19307 c -96.1554,0.002 -174.38438,72.48986 -174.38438,161.58888 0,89.1007 78.22898,161.5888 174.38438,161.5888 96.15539,0 174.38438,-72.4881 174.38438,-161.5888 V 885.97842 600.45896 L 1434.3,526.2365 v 242.22405 h -87.1913 c -96.1554,0 -174.3844,72.48809 -174.3844,161.58884 0,89.10071 78.229,161.58881 174.3844,161.58881 96.1553,0 174.3826,-72.4898 174.3826,-161.58881 V 812.52975 474.66412 298.38554 c 0,-12.88775 -5.5837,-25.13157 -15.2763,-33.50461 z"
                    id="path1-5"
                    style="fill:#000000;stroke-width:1.76927"
                    inkscape:label="music note 2"/></g></g></svg>
